<?xml version="1.0" encoding="UTF-8"?>
<svg version="1.1" xmlns="http://www.w3.org/2000/svg" width="508" height="338">
<path d="M0 0 C1.82421875 0.0625 1.82421875 0.0625 4 1 C17.73997703 19.5843813 23.9892098 44.48679022 27 67 C27.14356934 68.04849121 27.14356934 68.04849121 27.29003906 69.11816406 C31.68233183 104.24076319 23.49466003 138.11602851 7 169 C6.44570313 170.04929688 5.89140625 171.09859375 5.3203125 172.1796875 C-15.26435602 209.31088383 -52.68683742 236.3844056 -92.99780273 248.17993164 C-119.31001099 255.37062161 -157.79744249 260.37806991 -183 247 C-190.14491142 242.66201806 -194.71476624 237.09909653 -199 230 C-199.46277344 229.24074219 -199.92554688 228.48148438 -200.40234375 227.69921875 C-208.739174 212.62197255 -210.11111285 195.06202044 -206.1015625 178.48046875 C-199.25170749 156.83784174 -183.32013104 142.27260442 -163.77368164 131.80810547 C-157.53694924 128.5824014 -151.18130945 126.07521192 -144.5625 123.75 C-143.48411865 123.36432861 -142.4057373 122.97865723 -141.29467773 122.58129883 C-135.65026445 120.57836379 -129.98822679 118.65698645 -124.28125 116.83984375 C-102.53137691 109.89563574 -78.52487732 101.66881945 -60.55859375 87.1015625 C-59 86 -59 86 -57 86 C-57 85.34 -57 84.68 -57 84 C-57.58974609 84.20044922 -58.17949219 84.40089844 -58.78710938 84.60742188 C-87.68902138 94.34442966 -116.60888066 100.75975327 -146.64404297 105.76733398 C-156.68108722 107.45077012 -166.64843198 109.24793891 -176.5546875 111.59375 C-177.39424484 111.79195847 -178.23380219 111.99016693 -179.09880066 112.19438171 C-198.48101267 116.9405263 -220.29874661 126.99910832 -231.4375 144.26953125 C-242.30868005 163.26691839 -243.51872804 183.06387298 -238 204 C-235.68624907 210.75615272 -232.60380018 216.86019229 -229 223 C-229 223.66 -229 224.32 -229 225 C-239.73693735 223.522961 -246.99600399 213.06044778 -253.16796875 204.93359375 C-266.71048237 186.46735405 -273.24025573 165.49687905 -270.60546875 142.56640625 C-267.29762062 123.76502431 -256.73221022 109.22213689 -241.68359375 97.859375 C-213.75930495 78.51154171 -179.27290163 73.96362511 -146.375 69.4375 C-100.51138185 63.08211291 -55.04793107 55.40920506 -19 24 C-17.95392578 23.09894531 -17.95392578 23.09894531 -16.88671875 22.1796875 C-11.19015554 16.90551475 -7.17389182 10.58687097 -3.00390625 4.09765625 C-1 1 -1 1 0 0 Z " fill="#7E7E7E" transform="translate(394,82)"/>
<path d="M0 0 C6.16859623 6.69358315 7.89225135 13.5139061 7.56640625 22.54296875 C6.35890485 31.14508051 0.59586884 37.28216016 -5.875 42.6875 C-24.87607193 56.80868187 -48.10875731 62.16867256 -70.62304688 67.88525391 C-80.93292637 70.51055691 -91.09531244 73.2588994 -101.13671875 76.78710938 C-103.875 77.6875 -103.875 77.6875 -105.875 77.6875 C-106.205 78.3475 -106.535 79.0075 -106.875 79.6875 C-107.205 80.0175 -107.535 80.3475 -107.875 80.6875 C-105.92339966 80.44628418 -105.92339966 80.44628418 -103.93237305 80.20019531 C-98.93272237 79.58269958 -93.9328315 78.9671674 -88.93286133 78.3522644 C-86.68606474 78.07576846 -84.43931987 77.79885199 -82.19262695 77.52151489 C-59.79902946 74.75864486 -59.79902946 74.75864486 -48.70703125 73.57421875 C-3.9958943 69.99045511 -3.9958943 69.99045511 34.125 48.6875 C41.68654443 37.75536147 41.75997826 29.56295381 40.125 16.6875 C44.96778622 18.19012152 48.05500188 20.92435667 51.6875 24.3125 C52.2659668 24.84866943 52.84443359 25.38483887 53.44042969 25.93725586 C59.40336207 31.63792174 63.18195367 37.83912184 63.4375 46.3125 C63.31561168 54.69841659 59.72506866 60.76923051 54.0859375 66.7890625 C24.06401098 95.85411487 -23.75032308 99.21577264 -62.86437988 103.92712402 C-96.71082105 108.01064198 -131.82652081 112.36505065 -161.875 129.6875 C-162.47989258 130.03393555 -163.08478516 130.38037109 -163.70800781 130.73730469 C-185.71221819 143.56429239 -200.94597653 162.40918246 -207.91015625 186.98828125 C-209.09365124 191.52581063 -210.12927602 196.05733319 -210.875 200.6875 C-212.195 200.6875 -213.515 200.6875 -214.875 200.6875 C-217.65835345 189.70200157 -220.14658614 178.80208959 -221.1875 167.5 C-221.26339355 166.67733643 -221.33928711 165.85467285 -221.41748047 165.00708008 C-224.98847534 120.77928452 -210.82346509 77.71300677 -182.375 43.875 C-180.5701294 41.7858853 -178.73313851 39.72929955 -176.875 37.6875 C-176.03710938 36.76582031 -175.19921875 35.84414063 -174.3359375 34.89453125 C-138.42601223 -2.69697662 -45.50867894 -41.64382298 0 0 Z " fill="#7E7E7E" transform="translate(311.875,18.3125)"/>
<path d="M0 0 C0.33 0.66 0.66 1.32 1 2 C-0.0984742 3.46262592 -1.2040036 4.91995503 -2.3125 6.375 C-2.92738281 7.18710938 -3.54226562 7.99921875 -4.17578125 8.8359375 C-6 11 -6 11 -9 13 C-7.47987323 7.59510481 -3.72614782 4.01507372 0 0 Z " fill="#666666" transform="translate(205,232)"/>
<path d="M0 0 C3.65316671 1.24976756 4.78065836 1.67098753 7 5 C5.68 4.67 4.36 4.34 3 4 C2.67 5.65 2.34 7.3 2 9 C0.14223235 5.86501708 -0.20140476 3.62528568 0 0 Z " fill="#606060" transform="translate(352,35)"/>
<path d="M0 0 C-1.32 0.99 -2.64 1.98 -4 3 C-4 2.34 -4 1.68 -4 1 C-4.7425 1.350625 -5.485 1.70125 -6.25 2.0625 C-9.21122875 3.0720098 -10.12062561 2.87980884 -13 2 C-11.39935157 1.46845258 -9.79431126 0.95011647 -8.1875 0.4375 C-7.29417969 0.14746094 -6.40085937 -0.14257812 -5.48046875 -0.44140625 C-3 -1 -3 -1 0 0 Z " fill="#5B5B5B" transform="translate(341,165)"/>
<path d="M0 0 C1.875 0.1875 1.875 0.1875 4 1 C5.25 3.5625 5.25 3.5625 6 6 C3.5625 5.25 3.5625 5.25 1 4 C0.1875 1.875 0.1875 1.875 0 0 Z " fill="#727272" transform="translate(394,82)"/>
<path d="M0 0 C0.33 0.66 0.66 1.32 1 2 C-1.57784846 4.64752004 -3.91648098 6.94432065 -7 9 C-5.44499019 5.18315774 -2.96404505 2.80804268 0 0 Z " fill="#575757" transform="translate(138,53)"/>
<path d="M0 0 C-1 3 -1 3 -4 5 C-6.6875 5.125 -6.6875 5.125 -9 5 C-2.40909091 0 -2.40909091 0 0 0 Z " fill="#6F6F6F" transform="translate(327,175)"/>
<path d="M0 0 C3.3 0 6.6 0 10 0 C10.33 0.99 10.66 1.98 11 3 C9.741875 2.87625 8.48375 2.7525 7.1875 2.625 C6.12595703 2.52058594 6.12595703 2.52058594 5.04296875 2.4140625 C3 2 3 2 0 0 Z " fill="#626262" transform="translate(215,330)"/>
<path d="M0 0 C2.50037734 2.17424117 3.43628586 3.73045798 4 7 C1.5625 6.625 1.5625 6.625 -1 6 C-1.33 5.34 -1.66 4.68 -2 4 C-1.01 4 -0.02 4 1 4 C0.67 2.68 0.34 1.36 0 0 Z " fill="#585858" transform="translate(161,300)"/>
<path d="" fill="#000000" transform="translate(0,0)"/>
<path d="" fill="#000000" transform="translate(0,0)"/>
<path d="" fill="#000000" transform="translate(0,0)"/>
<path d="" fill="#000000" transform="translate(0,0)"/>
<path d="" fill="#000000" transform="translate(0,0)"/>
<path d="" fill="#000000" transform="translate(0,0)"/>
<path d="" fill="#000000" transform="translate(0,0)"/>
<path d="" fill="#000000" transform="translate(0,0)"/>
<path d="" fill="#000000" transform="translate(0,0)"/>
<path d="" fill="#000000" transform="translate(0,0)"/>
<path d="" fill="#000000" transform="translate(0,0)"/>
<path d="" fill="#000000" transform="translate(0,0)"/>
<path d="" fill="#000000" transform="translate(0,0)"/>
<path d="" fill="#000000" transform="translate(0,0)"/>
<path d="" fill="#000000" transform="translate(0,0)"/>
<path d="" fill="#000000" transform="translate(0,0)"/>
<path d="" fill="#000000" transform="translate(0,0)"/>
<path d="" fill="#000000" transform="translate(0,0)"/>
<path d="" fill="#000000" transform="translate(0,0)"/>
<path d="" fill="#000000" transform="translate(0,0)"/>
<path d="" fill="#000000" transform="translate(0,0)"/>
<path d="" fill="#000000" transform="translate(0,0)"/>
<path d="" fill="#000000" transform="translate(0,0)"/>
<path d="" fill="#000000" transform="translate(0,0)"/>
<path d="" fill="#000000" transform="translate(0,0)"/>
<path d="" fill="#000000" transform="translate(0,0)"/>
<path d="" fill="#000000" transform="translate(0,0)"/>
<path d="" fill="#000000" transform="translate(0,0)"/>
<path d="" fill="#000000" transform="translate(0,0)"/>
<path d="" fill="#000000" transform="translate(0,0)"/>
<path d="" fill="#000000" transform="translate(0,0)"/>
<path d="" fill="#000000" transform="translate(0,0)"/>
<path d="" fill="#000000" transform="translate(0,0)"/>
<path d="" fill="#000000" transform="translate(0,0)"/>
<path d="" fill="#000000" transform="translate(0,0)"/>
<path d="" fill="#000000" transform="translate(0,0)"/>
<path d="" fill="#000000" transform="translate(0,0)"/>
<path d="" fill="#000000" transform="translate(0,0)"/>
<path d="" fill="#000000" transform="translate(0,0)"/>
<path d="" fill="#000000" transform="translate(0,0)"/>
<path d="" fill="#000000" transform="translate(0,0)"/>
<path d="" fill="#000000" transform="translate(0,0)"/>
<path d="" fill="#000000" transform="translate(0,0)"/>
<path d="" fill="#000000" transform="translate(0,0)"/>
<path d="" fill="#000000" transform="translate(0,0)"/>
<path d="" fill="#000000" transform="translate(0,0)"/>
<path d="" fill="#000000" transform="translate(0,0)"/>
<path d="" fill="#000000" transform="translate(0,0)"/>
<path d="" fill="#000000" transform="translate(0,0)"/>
<path d="" fill="#000000" transform="translate(0,0)"/>
<path d="" fill="#000000" transform="translate(0,0)"/>
<path d="" fill="#000000" transform="translate(0,0)"/>
<path d="" fill="#000000" transform="translate(0,0)"/>
<path d="" fill="#000000" transform="translate(0,0)"/>
<path d="" fill="#000000" transform="translate(0,0)"/>
<path d="" fill="#000000" transform="translate(0,0)"/>
<path d="" fill="#000000" transform="translate(0,0)"/>
<path d="" fill="#000000" transform="translate(0,0)"/>
</svg>
